<svg width="32" height="32" viewBox="0 0 32 32" fill="none" xmlns="http://www.w3.org/2000/svg">
  <path d="M16 8.33732C17.5573 7.30266 19.672 6.66666 22 6.66666C24.3293 6.66666 26.4427 7.30266 28 8.33732V25.6707C26.4427 24.636 24.3293 24 22 24C19.672 24 17.5573 24.636 16 25.6707M16 8.33732V25.6707V8.33732ZM16 8.33732C14.4427 7.30266 12.328 6.66666 10 6.66666C7.672 6.66666 5.55733 7.30266 4 8.33732V25.6707C5.55733 24.636 7.672 24 10 24C12.328 24 14.4427 24.636 16 25.6707V8.33732Z" stroke="white" stroke-width="2.66667" stroke-linecap="round" stroke-linejoin="round" />
</svg>
  