<svg width="33" height="34" viewBox="0 0 33 34" fill="none" xmlns="http://www.w3.org/2000/svg">
  <g clip-path="url(#clip0_55_30)">
    <path d="M31.8065 11.407C31.0887 9.68428 29.6327 7.82421 28.4925 7.23621C29.3055 8.80671 29.8699 10.4933 30.1655 12.2361L30.1685 12.2637C28.3006 7.62098 25.1345 5.74603 22.5472 1.66875C22.4163 1.46254 22.2854 1.25592 22.158 1.03781C22.0851 0.913239 22.0267 0.800997 21.976 0.697683C21.8687 0.490441 21.786 0.27142 21.7296 0.0450632C21.7297 0.0346179 21.7259 0.0245104 21.719 0.0166688C21.7121 0.00882726 21.7025 0.0038004 21.6921 0.00254721C21.6819 -0.000238719 21.6712 -0.000238719 21.661 0.00254721C21.6589 0.00254721 21.6555 0.00637365 21.6529 0.00722396C21.6503 0.00807428 21.6448 0.0119007 21.641 0.0136014L21.6474 0.00254721C17.4978 2.42596 16.0891 6.91139 15.9612 9.15623C14.3035 9.26959 12.7186 9.87869 11.4132 10.9041C11.277 10.789 11.1347 10.6815 10.9869 10.5818C10.6106 9.26759 10.5945 7.87674 10.9405 6.55425C9.41658 7.29055 8.06253 8.33437 6.96402 9.61965H6.95635C6.30163 8.79187 6.34767 6.06235 6.38518 5.49221C6.19149 5.56985 6.0066 5.66776 5.83361 5.78429C5.25564 6.19573 4.71532 6.65742 4.21899 7.16393C3.6534 7.7359 3.13683 8.35412 2.6747 9.0121V9.01465V9.01168C1.61272 10.5132 0.859401 12.2096 0.458219 14.003L0.436054 14.1119C0.404938 14.2569 0.292835 14.983 0.273654 15.1408C0.273654 15.1531 0.271097 15.1646 0.269818 15.1769C0.125213 15.9266 0.0356059 16.6858 0.00170898 17.4485V17.5336C0.00900988 21.657 1.56586 25.6279 4.36492 28.6623C7.16398 31.6968 11.0019 33.5743 15.1209 33.9242C19.24 34.2741 23.3409 33.0711 26.6141 30.5525C29.8874 28.0339 32.0951 24.3829 32.8014 20.3201C32.8291 20.1075 32.8517 19.897 32.8764 19.6823C33.2167 16.8771 32.8483 14.0315 31.8048 11.4045L31.8065 11.407ZM12.7661 24.3064C12.8432 24.3433 12.9157 24.3833 12.995 24.4186L13.0065 24.4258C12.9264 24.3876 12.8462 24.3477 12.7661 24.3064V24.3064ZM30.1689 12.2684V12.2527L30.1719 12.2701L30.1689 12.2684Z" fill="url(#paint0_linear_55_30)" />
    <path d="M31.8065 11.407C31.0887 9.68427 29.6327 7.8242 28.4925 7.23621C29.3055 8.8067 29.8699 10.4933 30.1655 12.2361V12.2518L30.1685 12.2692C31.442 15.904 31.2578 19.889 29.6544 23.3914C27.761 27.4436 23.1797 31.597 16.006 31.3929C8.25683 31.174 1.42836 25.4364 0.153887 17.9239C-0.0784174 16.7389 0.153887 16.1382 0.270678 15.1752C0.111369 15.9232 0.0224657 16.6844 0.00512695 17.449V17.534C0.0124279 21.6574 1.56927 25.6283 4.36834 28.6627C7.1674 31.6972 11.0053 33.5747 15.1243 33.9246C19.2434 34.2745 23.3443 33.0715 26.6175 30.5529C29.8908 28.0343 32.0985 24.3833 32.8048 20.3205C32.8325 20.1079 32.8551 19.8975 32.8798 19.6827C33.2201 16.8775 32.8517 14.0319 31.8082 11.4049L31.8065 11.407Z" fill="url(#paint1_radial_55_30)" />
    <path d="M31.8065 11.407C31.0887 9.68427 29.6327 7.8242 28.4925 7.23621C29.3055 8.8067 29.8699 10.4933 30.1655 12.2361V12.2518L30.1685 12.2692C31.442 15.904 31.2578 19.889 29.6544 23.3914C27.761 27.4436 23.1797 31.597 16.006 31.3929C8.25683 31.174 1.42836 25.4364 0.153887 17.9239C-0.0784174 16.7389 0.153887 16.1382 0.270678 15.1752C0.111369 15.9232 0.0224657 16.6844 0.00512695 17.449V17.534C0.0124279 21.6574 1.56927 25.6283 4.36834 28.6627C7.1674 31.6972 11.0053 33.5747 15.1243 33.9246C19.2434 34.2745 23.3443 33.0715 26.6175 30.5529C29.8908 28.0343 32.0985 24.3833 32.8048 20.3205C32.8325 20.1079 32.8551 19.8975 32.8798 19.6827C33.2201 16.8775 32.8517 14.0319 31.8082 11.4049L31.8065 11.407Z" fill="url(#paint2_radial_55_30)" />
    <path d="M23.776 13.3415C23.8118 13.3666 23.8451 13.3917 23.8788 13.4168C23.4638 12.6828 22.9472 12.0108 22.3443 11.4206C17.208 6.29746 20.9986 0.315468 21.6376 0.00935351L21.644 0C17.4944 2.42341 16.0857 6.90884 15.9578 9.15368C16.1505 9.1405 16.3414 9.12435 16.5384 9.12435C18.0106 9.12719 19.4557 9.5188 20.727 10.2594C21.9983 10.9999 23.0503 12.0631 23.776 13.3407V13.3415Z" fill="url(#paint3_radial_55_30)" />
    <path d="M16.5469 14.3661C16.5196 14.776 15.0678 16.1897 14.5601 16.1897C9.8629 16.1897 9.09991 19.0242 9.09991 19.0242C9.30792 21.411 10.9754 23.3778 12.9911 24.4152C13.0832 24.4628 13.1765 24.5058 13.2699 24.5479C13.4316 24.6193 13.5933 24.6853 13.755 24.746C14.4467 24.9902 15.1713 25.1296 15.9045 25.1597C24.1396 25.5449 25.7338 15.3385 19.7915 12.3751C21.1932 12.1932 22.6127 12.537 23.7747 13.3398C23.0489 12.0622 21.997 10.9991 20.7257 10.2585C19.4544 9.51796 18.0093 9.12635 16.5371 9.1235C16.341 9.1235 16.1492 9.13966 15.9565 9.15284C14.2988 9.2662 12.7139 9.8753 11.4085 10.9007C11.6604 11.1133 11.9447 11.3973 12.5436 11.9861C13.6646 13.0877 16.5396 14.2288 16.546 14.3627L16.5469 14.3661Z" fill="url(#paint4_radial_55_30)" />
    <path d="M16.5469 14.3661C16.5196 14.776 15.0678 16.1897 14.5601 16.1897C9.8629 16.1897 9.09991 19.0242 9.09991 19.0242C9.30792 21.411 10.9754 23.3778 12.9911 24.4152C13.0832 24.4628 13.1765 24.5058 13.2699 24.5479C13.4316 24.6193 13.5933 24.6853 13.755 24.746C14.4467 24.9902 15.1713 25.1296 15.9045 25.1597C24.1396 25.5449 25.7338 15.3385 19.7915 12.3751C21.1932 12.1932 22.6127 12.537 23.7747 13.3398C23.0489 12.0622 21.997 10.9991 20.7257 10.2585C19.4544 9.51796 18.0093 9.12635 16.5371 9.1235C16.341 9.1235 16.1492 9.13966 15.9565 9.15284C14.2988 9.2662 12.7139 9.8753 11.4085 10.9007C11.6604 11.1133 11.9447 11.3973 12.5436 11.9861C13.6646 13.0877 16.5396 14.2288 16.546 14.3627L16.5469 14.3661Z" fill="url(#paint5_radial_55_30)" />
    <path d="M10.6391 10.3569C10.773 10.4419 10.8834 10.5159 10.9801 10.5827C10.6037 9.26845 10.5877 7.8776 10.9337 6.55511C9.40978 7.29141 8.05572 8.33523 6.95721 9.62051C7.03777 9.61839 9.43413 9.57545 10.6391 10.3569V10.3569Z" fill="url(#paint6_radial_55_30)" />
    <path d="M0.150875 17.9247C1.42578 25.4373 8.25382 31.1769 16.003 31.3938C23.1767 31.5962 27.7589 27.4424 29.6514 23.3923C31.2548 19.8899 31.439 15.9048 30.1654 12.2701V12.2544C30.1654 12.242 30.1629 12.2348 30.1654 12.2386L30.1684 12.2663C30.7545 16.0829 28.8083 19.7789 25.7653 22.283L25.7559 22.3043C19.8268 27.1214 14.1535 25.2098 13.0069 24.4301C12.9268 24.3918 12.8466 24.352 12.7665 24.3106C9.31006 22.6627 7.88171 19.5233 8.1886 16.8278C7.36813 16.8399 6.56174 16.6144 5.86716 16.1786C5.17257 15.7428 4.6196 15.1154 4.27524 14.3725C5.18263 13.8181 6.21724 13.5047 7.2805 13.4621C8.34375 13.4195 9.40022 13.6492 10.3492 14.1293C12.3054 15.015 14.5313 15.1023 16.5511 14.3725C16.5447 14.2386 13.6697 13.097 12.5487 11.9959C11.9498 11.407 11.6655 11.1235 11.4136 10.9105C11.2774 10.7954 11.1352 10.6878 10.9873 10.5882C10.8893 10.5214 10.7789 10.4492 10.6463 10.3624C9.44134 9.58098 7.04498 9.62392 6.9657 9.62604H6.95803C6.30332 8.79826 6.34935 6.06873 6.38686 5.4986C6.19317 5.57624 6.00829 5.67415 5.8353 5.79068C5.25732 6.20212 4.717 6.66381 4.22068 7.17032C3.65306 7.74068 3.13435 8.35748 2.66999 9.01424V9.01679V9.01381C1.60801 10.5153 0.854691 12.2117 0.45351 14.0052C0.445411 14.0388 -0.141531 16.5982 0.147891 17.9256L0.150875 17.9247Z" fill="url(#paint7_radial_55_30)" />
    <path d="M22.3438 11.4198C22.9469 12.0106 23.4635 12.6833 23.8783 13.418C23.9691 13.4865 24.0539 13.5545 24.126 13.6204C27.8714 17.0642 25.9089 21.9323 25.7627 22.2766C28.8053 19.7763 30.7498 16.0778 30.1659 12.2599C28.2972 7.61289 25.1276 5.73794 22.5446 1.66066C22.4137 1.45446 22.2829 1.24783 22.1554 1.02972C22.0825 0.905152 22.0241 0.79291 21.9734 0.689596C21.8661 0.482353 21.7834 0.263333 21.727 0.036976C21.7271 0.0265308 21.7233 0.0164233 21.7164 0.00858169C21.7095 0.000740101 21.6999 -0.00428676 21.6895 -0.00553995C21.6793 -0.00832588 21.6686 -0.00832588 21.6584 -0.00553995C21.6563 -0.00553995 21.6529 -0.00171351 21.6503 -0.000863193C21.6478 -1.28742e-05 21.6422 0.00381356 21.6384 0.0055142C20.9994 0.307803 17.2097 6.29362 22.346 11.4125L22.3438 11.4198Z" fill="url(#paint8_radial_55_30)" />
    <path d="M24.1256 13.6221C24.0535 13.5562 23.9687 13.4882 23.8779 13.4197C23.8442 13.3946 23.811 13.3696 23.7752 13.3445C22.6132 12.5416 21.1936 12.1979 19.7919 12.3798C25.7338 15.3431 24.1396 25.547 15.905 25.1643C15.1718 25.1343 14.4472 24.9948 13.7554 24.7506C13.5937 24.6903 13.432 24.6242 13.2703 24.5525C13.177 24.51 13.0836 24.4675 12.9916 24.4199L13.0031 24.4271C14.1514 25.209 19.823 27.1192 25.7521 22.3013L25.7615 22.28C25.9094 21.9357 27.8718 17.0676 24.1247 13.6238L24.1256 13.6221Z" fill="url(#paint9_radial_55_30)" />
    <path d="M9.10037 19.0216C9.10037 19.0216 9.86292 16.1871 14.5606 16.1871C15.0682 16.1871 16.5213 14.7734 16.5473 14.3636C14.5275 15.0933 12.3016 15.0061 10.3454 14.1204C9.39641 13.6403 8.33994 13.4106 7.27668 13.4532C6.21343 13.4957 5.17882 13.8092 4.27142 14.3636C4.61579 15.1065 5.16876 15.7339 5.86334 16.1697C6.55793 16.6054 7.36431 16.831 8.18479 16.8189C7.87875 19.5131 9.30667 22.6521 12.7627 24.3017C12.8398 24.3387 12.9123 24.3786 12.9916 24.4139C10.9741 23.3744 9.30838 21.4085 9.10037 19.0229V19.0216Z" fill="url(#paint10_radial_55_30)" />
    <path d="M31.8065 11.407C31.0887 9.68428 29.6327 7.82421 28.4925 7.23621C29.3055 8.80671 29.8699 10.4933 30.1655 12.2361L30.1685 12.2637C28.3006 7.62098 25.1345 5.74603 22.5472 1.66875C22.4163 1.46254 22.2854 1.25592 22.158 1.03781C22.0851 0.913239 22.0267 0.800997 21.976 0.697683C21.8687 0.490441 21.786 0.27142 21.7296 0.0450632C21.7297 0.0346179 21.7259 0.0245104 21.719 0.0166688C21.7121 0.00882726 21.7025 0.0038004 21.6921 0.00254721C21.6819 -0.000238719 21.6712 -0.000238719 21.661 0.00254721C21.6589 0.00254721 21.6555 0.00637365 21.6529 0.00722396C21.6503 0.00807428 21.6448 0.0119007 21.641 0.0136014L21.6474 0.00254721C17.4978 2.42596 16.0891 6.91139 15.9612 9.15623C16.1539 9.14305 16.3449 9.12689 16.5418 9.12689C18.014 9.12973 19.4592 9.52135 20.7304 10.2619C22.0017 11.0025 23.0537 12.0656 23.7794 13.3432C22.6174 12.5404 21.1979 12.1966 19.7962 12.3785C25.738 15.3419 24.1439 25.5457 15.9092 25.1631C15.176 25.133 14.4515 24.9936 13.7597 24.7494C13.598 24.689 13.4363 24.623 13.2746 24.5513C13.1813 24.5087 13.0879 24.4662 12.9958 24.4186L13.0073 24.4258C12.9272 24.3876 12.8471 24.3477 12.7669 24.3064C12.8441 24.3433 12.9166 24.3833 12.9958 24.4186C10.9784 23.3787 9.31264 21.4127 9.10463 19.0276C9.10463 19.0276 9.86718 16.193 14.5648 16.193C15.0725 16.193 16.5256 14.7794 16.5516 14.3695C16.5452 14.2356 13.6702 13.0941 12.5491 11.9929C11.9503 11.404 11.6659 11.1205 11.414 10.9075C11.2779 10.7924 11.1356 10.6849 10.9878 10.5852C10.6114 9.27099 10.5954 7.88015 10.9413 6.55766C9.41744 7.29395 8.06338 8.33777 6.96487 9.62306H6.9572C6.30249 8.79527 6.34852 6.06575 6.38603 5.49561C6.19234 5.57325 6.00745 5.67116 5.83447 5.78769C5.25649 6.19914 4.71617 6.66082 4.21985 7.16733C3.65425 7.7393 3.13768 8.35752 2.67555 9.0155V9.01805V9.01508C1.61358 10.5166 0.860255 12.213 0.459073 14.0064L0.436909 14.1153C0.405793 14.2603 0.26641 14.9966 0.246376 15.1548C0.118886 15.9149 0.0374677 16.682 0.00256348 17.4519V17.537C0.00986437 21.6604 1.56671 25.6313 4.36577 28.6657C7.16484 31.7002 11.0027 33.5777 15.1218 33.9276C19.2408 34.2775 23.3418 33.0745 26.615 30.5559C29.8882 28.0373 32.0959 24.3863 32.8022 20.3235C32.8299 20.1109 32.8525 19.9004 32.8772 19.6857C33.2175 16.8805 32.8492 14.0349 31.8057 11.4079L31.8065 11.407ZM30.1676 12.2535L30.1706 12.2709L30.1676 12.2535Z" fill="url(#paint11_linear_55_30)" />
  </g>
  <defs>
    <linearGradient id="paint0_linear_55_30" x1="29.6199" y1="5.26599" x2="2.26143" y2="31.7297" gradientUnits="userSpaceOnUse">
      <stop offset="0.048" stop-color="#FFF44F" />
      <stop offset="0.111" stop-color="#FFE847" />
      <stop offset="0.225" stop-color="#FFC830" />
      <stop offset="0.368" stop-color="#FF980E" />
      <stop offset="0.401" stop-color="#FF8B16" />
      <stop offset="0.462" stop-color="#FF672A" />
      <stop offset="0.534" stop-color="#FF3647" />
      <stop offset="0.705" stop-color="#E31587" />
    </linearGradient>
    <radialGradient id="paint1_radial_55_30" cx="0" cy="0" r="1" gradientUnits="userSpaceOnUse" gradientTransform="translate(28.5585 3.82643) scale(34.4407 34.3529)">
      <stop offset="0.129" stop-color="#FFBD4F" />
      <stop offset="0.186" stop-color="#FFAC31" />
      <stop offset="0.247" stop-color="#FF9D17" />
      <stop offset="0.283" stop-color="#FF980E" />
      <stop offset="0.403" stop-color="#FF563B" />
      <stop offset="0.467" stop-color="#FF3750" />
      <stop offset="0.71" stop-color="#F5156C" />
      <stop offset="0.782" stop-color="#EB0878" />
      <stop offset="0.86" stop-color="#E50080" />
    </radialGradient>
    <radialGradient id="paint2_radial_55_30" cx="0" cy="0" r="1" gradientUnits="userSpaceOnUse" gradientTransform="translate(15.7711 17.8567) scale(34.4407 34.3529)">
      <stop offset="0.3" stop-color="#960E18" />
      <stop offset="0.351" stop-color="#B11927" stop-opacity="0.74" />
      <stop offset="0.435" stop-color="#DB293D" stop-opacity="0.343" />
      <stop offset="0.497" stop-color="#F5334B" stop-opacity="0.094" />
      <stop offset="0.53" stop-color="#FF3750" stop-opacity="0" />
    </radialGradient>
    <radialGradient id="paint3_radial_55_30" cx="0" cy="0" r="1" gradientUnits="userSpaceOnUse" gradientTransform="translate(20.0336 -3.82644) scale(24.9482 24.8846)">
      <stop offset="0.132" stop-color="#FFF44F" />
      <stop offset="0.252" stop-color="#FFDC3E" />
      <stop offset="0.506" stop-color="#FF9D12" />
      <stop offset="0.526" stop-color="#FF980E" />
    </radialGradient>
    <radialGradient id="paint4_radial_55_30" cx="0" cy="0" r="1" gradientUnits="userSpaceOnUse" gradientTransform="translate(11.9349 26.7851) scale(16.3977 16.3559)">
      <stop offset="0.353" stop-color="#3A8EE6" />
      <stop offset="0.472" stop-color="#5C79F0" />
      <stop offset="0.669" stop-color="#9059FF" />
      <stop offset="1" stop-color="#C139E6" />
    </radialGradient>
    <radialGradient id="paint5_radial_55_30" cx="0" cy="0" r="1" gradientUnits="userSpaceOnUse" gradientTransform="translate(17.4369 14.9078) rotate(-13.5582) scale(8.69424 10.1557)">
      <stop offset="0.206" stop-color="#9059FF" stop-opacity="0" />
      <stop offset="0.278" stop-color="#8C4FF3" stop-opacity="0.064" />
      <stop offset="0.747" stop-color="#7716A8" stop-opacity="0.45" />
      <stop offset="0.975" stop-color="#6E008B" stop-opacity="0.6" />
    </radialGradient>
    <radialGradient id="paint6_radial_55_30" cx="0" cy="0" r="1" gradientUnits="userSpaceOnUse" gradientTransform="translate(15.3449 2.55096) scale(11.7985 11.7684)">
      <stop stop-color="#FFE226" />
      <stop offset="0.121" stop-color="#FFDB27" />
      <stop offset="0.295" stop-color="#FFC82A" />
      <stop offset="0.502" stop-color="#FFA930" />
      <stop offset="0.732" stop-color="#FF7E37" />
      <stop offset="0.792" stop-color="#FF7139" />
    </radialGradient>
    <radialGradient id="paint7_radial_55_30" cx="0" cy="0" r="1" gradientUnits="userSpaceOnUse" gradientTransform="translate(24.7223 -5.10191) scale(50.3397 50.2113)">
      <stop offset="0.113" stop-color="#FFF44F" />
      <stop offset="0.456" stop-color="#FF980E" />
      <stop offset="0.622" stop-color="#FF5634" />
      <stop offset="0.716" stop-color="#FF3647" />
      <stop offset="0.904" stop-color="#E31587" />
    </radialGradient>
    <radialGradient id="paint8_radial_55_30" cx="0" cy="0" r="1" gradientUnits="userSpaceOnUse" gradientTransform="translate(20.5382 -2.31798) rotate(83.9607) scale(36.7966 24.2097)">
      <stop stop-color="#FFF44F" />
      <stop offset="0.06" stop-color="#FFE847" />
      <stop offset="0.168" stop-color="#FFC830" />
      <stop offset="0.304" stop-color="#FF980E" />
      <stop offset="0.356" stop-color="#FF8B16" />
      <stop offset="0.455" stop-color="#FF672A" />
      <stop offset="0.57" stop-color="#FF3647" />
      <stop offset="0.737" stop-color="#E31587" />
    </radialGradient>
    <radialGradient id="paint9_radial_55_30" cx="0" cy="0" r="1" gradientUnits="userSpaceOnUse" gradientTransform="translate(15.3449 6.80254) scale(31.4229 31.3427)">
      <stop offset="0.137" stop-color="#FFF44F" />
      <stop offset="0.48" stop-color="#FF980E" />
      <stop offset="0.592" stop-color="#FF5634" />
      <stop offset="0.655" stop-color="#FF3647" />
      <stop offset="0.904" stop-color="#E31587" />
    </radialGradient>
    <radialGradient id="paint10_radial_55_30" cx="0" cy="0" r="1" gradientUnits="userSpaceOnUse" gradientTransform="translate(23.4436 8.50319) scale(34.3938 34.3061)">
      <stop offset="0.094" stop-color="#FFF44F" />
      <stop offset="0.231" stop-color="#FFE141" />
      <stop offset="0.509" stop-color="#FFAF1E" />
      <stop offset="0.626" stop-color="#FF980E" />
    </radialGradient>
    <linearGradient id="paint11_linear_55_30" x1="29.2874" y1="5.12568" x2="6.01425" y2="28.4626" gradientUnits="userSpaceOnUse">
      <stop offset="0.167" stop-color="#FFF44F" stop-opacity="0.8" />
      <stop offset="0.266" stop-color="#FFF44F" stop-opacity="0.634" />
      <stop offset="0.489" stop-color="#FFF44F" stop-opacity="0.217" />
      <stop offset="0.6" stop-color="#FFF44F" stop-opacity="0" />
    </linearGradient>
    <clipPath id="clip0_55_30">
      <rect width="33" height="34" fill="white" />
    </clipPath>
  </defs>
</svg>
  