<svg width="156" height="32" viewBox="0 0 156 32" fill="none" xmlns="http://www.w3.org/2000/svg">
<path d="M44.648 25.36C50.144 25.36 53.552 21.328 53.336 15.712H44.456V18.616H49.448C48.968 20.752 47.36 22.264 44.816 22.264C41.36 22.264 39.512 19.72 39.512 16.408C39.512 12.712 41.624 10.672 44.408 10.672C46.712 10.672 48.296 11.992 48.824 13.744H53.12C51.992 10 48.872 7.408 44.504 7.408C39.464 7.408 35.768 11.224 35.768 16.312C35.768 21.64 39.656 25.36 44.648 25.36ZM58.9256 18.784C58.9256 15.952 60.8216 15.28 63.6536 15.496V12.04C61.5896 12.04 59.5976 13.024 58.6616 14.656V12.184H55.5896V25H58.9256V18.784ZM73.0184 25H75.7304V16.936C75.7304 13.792 73.7624 11.944 70.4024 11.944C67.3064 11.944 65.1704 13.864 64.9784 16.816H67.9784C68.0984 15.376 68.9624 14.536 70.4024 14.536C71.7944 14.536 72.6104 15.376 72.6104 16.816V17.584C71.8184 17.488 71.1944 17.44 70.4744 17.44C66.7304 17.44 64.7144 18.784 64.7144 21.28C64.7144 23.68 66.4904 25.24 69.1544 25.24C70.9064 25.24 72.1784 24.616 73.0184 23.416V25ZM67.8584 21.184C67.8584 20.032 68.7944 19.432 70.6904 19.432C71.2664 19.432 71.8184 19.48 72.6104 19.6V20.512C72.6104 22 71.5784 22.936 69.8744 22.936C68.6264 22.936 67.8584 22.264 67.8584 21.184ZM81.9412 25V17.848C81.9412 15.928 82.9972 14.896 84.3412 14.896C85.8052 14.896 86.5732 15.976 86.5732 17.776V25H89.8852V17.848C89.8852 15.928 90.9652 14.896 92.2852 14.896C93.7492 14.896 94.5172 15.976 94.5172 17.776V25H97.8292V16.72C97.8292 13.648 96.0772 11.944 93.4852 11.944C91.5652 11.944 90.2692 12.808 89.2612 14.224C88.6132 12.76 87.2692 11.944 85.5172 11.944C83.8132 11.944 82.6132 12.712 81.6772 14.008V12.184H78.6052V25H81.9412ZM108.315 25H111.027V16.936C111.027 13.792 109.059 11.944 105.699 11.944C102.603 11.944 100.467 13.864 100.275 16.816H103.275C103.395 15.376 104.259 14.536 105.699 14.536C107.091 14.536 107.907 15.376 107.907 16.816V17.584C107.115 17.488 106.491 17.44 105.771 17.44C102.027 17.44 100.011 18.784 100.011 21.28C100.011 23.68 101.787 25.24 104.451 25.24C106.203 25.24 107.475 24.616 108.315 23.416V25ZM103.155 21.184C103.155 20.032 104.091 19.432 105.987 19.432C106.563 19.432 107.115 19.48 107.907 19.6V20.512C107.907 22 106.875 22.936 105.171 22.936C103.923 22.936 103.155 22.264 103.155 21.184ZM121.683 21.76C121.203 22.024 120.627 22.168 120.003 22.168C118.803 22.168 118.131 21.568 118.131 20.08V15.04H121.803V12.184H118.131V8.392H114.819V12.184H112.227V15.04H114.819V20.848C114.819 23.728 116.475 25.24 119.115 25.24C120.099 25.24 120.867 25.072 121.683 24.664V21.76ZM127.704 9.208C127.704 8.032 126.792 7.192 125.472 7.192C124.176 7.192 123.264 8.032 123.264 9.208C123.264 10.336 124.176 11.176 125.472 11.176C126.792 11.176 127.704 10.336 127.704 9.208ZM127.176 25V12.184H123.84V25H127.176ZM133.48 25V19.048L138.376 25H142.624L136.696 18.328L142 12.184H138.16L133.48 17.608V7.768H130.144V25H133.48ZM151.229 25H153.941V16.936C153.941 13.792 151.973 11.944 148.613 11.944C145.517 11.944 143.381 13.864 143.189 16.816H146.189C146.309 15.376 147.173 14.536 148.613 14.536C150.005 14.536 150.821 15.376 150.821 16.816V17.584C150.029 17.488 149.405 17.44 148.685 17.44C144.941 17.44 142.925 18.784 142.925 21.28C142.925 23.68 144.701 25.24 147.365 25.24C149.117 25.24 150.389 24.616 151.229 23.416V25ZM146.069 21.184C146.069 20.032 147.005 19.432 148.901 19.432C149.477 19.432 150.029 19.48 150.821 19.6V20.512C150.821 22 149.789 22.936 148.085 22.936C146.837 22.936 146.069 22.264 146.069 21.184Z" fill="black"/>
<rect y="5" width="23" height="23" rx="11.5" fill="#3D4451"/>
<path d="M11.6033 20.2354C14.8107 20.2354 16.7379 17.8365 16.5357 14.6426H11.482V16.6506H13.8135C13.5305 17.4592 12.8432 18.0791 11.7381 18.0791C9.98613 18.0791 9.19102 16.8258 9.19102 15.2086C9.19102 13.3084 10.2018 12.4324 11.4551 12.4324C12.4389 12.4324 13.1531 12.985 13.3957 13.7262H16.4145C15.7406 11.5564 13.9482 10.1549 11.5225 10.1549C8.67891 10.1549 6.57656 12.2842 6.57656 15.1412C6.57656 18.16 8.78672 20.2354 11.6033 20.2354Z" fill="white"/>
<path d="M4.58203 24.2266L5.83984 22.8789L7.27734 24.2266L9.25391 22.8789L11.1406 24.2266L12.8477 22.8789L14.8242 24.2266L16.9805 22.8789L18.8672 24.2266" stroke="#F79494" stroke-width="0.539062"/>
</svg>
