<svg width="23" height="23" viewBox="0 0 23 23" fill="none" xmlns="http://www.w3.org/2000/svg">
  <rect width="23" height="23" rx="11.5" fill="#3D4451" />
  <path d="M11.6033 15.2354C14.8107 15.2354 16.7379 12.8365 16.5357 9.64258H11.482V11.6506H13.8135C13.5305 12.4592 12.8432 13.0791 11.7381 13.0791C9.98613 13.0791 9.19102 11.8258 9.19102 10.2086C9.19102 8.3084 10.2018 7.43242 11.4551 7.43242C12.4389 7.43242 13.1531 7.98496 13.3957 8.72617H16.4145C15.7406 6.55645 13.9482 5.15488 11.5225 5.15488C8.67891 5.15488 6.57656 7.28418 6.57656 10.1412C6.57656 13.16 8.78672 15.2354 11.6033 15.2354Z" fill="white" />
  <path d="M4.58203 19.2266L5.83984 17.8789L7.27734 19.2266L9.25391 17.8789L11.1406 19.2266L12.8477 17.8789L14.8242 19.2266L16.9805 17.8789L18.8672 19.2266" stroke="#F79494" stroke-width="0.539062" />
</svg>
  