<svg width="32" height="32" viewBox="0 0 32 32" fill="none" xmlns="http://www.w3.org/2000/svg">
  <path d="M16 24H16.0133H16ZM10.6667 28H21.3333C22.0406 28 22.7189 27.719 23.219 27.219C23.719 26.7189 24 26.0406 24 25.3333V6.66667C24 5.95942 23.719 5.28115 23.219 4.78105C22.7189 4.28095 22.0406 4 21.3333 4H10.6667C9.95942 4 9.28115 4.28095 8.78105 4.78105C8.28095 5.28115 8 5.95942 8 6.66667V25.3333C8 26.0406 8.28095 26.7189 8.78105 27.219C9.28115 27.719 9.95942 28 10.6667 28Z" stroke="white" stroke-width="2.66667" stroke-linecap="round" stroke-linejoin="round" />
</svg>
  